<svg width="22" height="18" viewBox="0 0 22 18" fill="none" xmlns="http://www.w3.org/2000/svg">
<path d="M18.6594 3.55403H17.9841C17.7772 3.55652 16.5739 3.50023 16.3977 3.39171C16.2216 3.28318 16.0798 3.12687 15.989 2.94096L15.1893 1.35055C14.988 0.943362 14.6764 0.60089 14.29 0.362126C13.9036 0.123361 13.4579 -0.00210027 13.0036 2.65992e-05H8.09912C7.64488 -0.00210027 7.19918 0.123361 6.81276 0.362126C6.42634 0.60089 6.11473 0.943362 5.91341 1.35055L5.11376 2.94096C5.02293 3.12687 4.8812 3.28318 4.70504 3.39171C4.52888 3.50023 4.32553 3.55652 4.11864 3.55403H2.44338C1.79535 3.55403 1.17387 3.81145 0.715648 4.26967C0.257426 4.7279 0 5.34938 0 5.9974V14.8824C0 15.5304 0.257426 16.1519 0.715648 16.6101C1.17387 17.0684 1.79535 17.3258 2.44338 17.3258H18.6594C19.3074 17.3258 19.9289 17.0684 20.3871 16.6101C20.8453 16.1519 21.1028 15.5304 21.1028 14.8824V5.9974C21.1028 5.34938 20.8453 4.7279 20.3871 4.26967C19.9289 3.81145 19.3074 3.55403 18.6594 3.55403ZM10.5514 14.216C9.6288 14.216 8.72694 13.9425 7.95985 13.4299C7.19276 12.9173 6.59488 12.1888 6.24182 11.3365C5.88877 10.4841 5.79639 9.54623 5.97638 8.64138C6.15637 7.73653 6.60063 6.90537 7.25299 6.25301C7.90535 5.60065 8.7365 5.15639 9.64135 4.97641C10.5462 4.79642 11.4841 4.8888 12.3365 5.24185C13.1888 5.59491 13.9173 6.19278 14.4299 6.95988C14.9424 7.72697 15.216 8.62883 15.216 9.5514C15.2137 10.7878 14.7214 11.9729 13.8472 12.8472C12.9729 13.7215 11.7878 14.2137 10.5514 14.216Z" fill="white"/>
<path d="M10.5514 12.8841C12.3915 12.8841 13.8832 11.3924 13.8832 9.55226C13.8832 7.71211 12.3915 6.22038 10.5514 6.22038C8.71121 6.22038 7.21948 7.71211 7.21948 9.55226C7.21948 11.3924 8.71121 12.8841 10.5514 12.8841Z" fill="white"/>
</svg>
