<svg width="20" height="19" viewBox="0 0 20 19" fill="none" xmlns="http://www.w3.org/2000/svg">
<path d="M17.5 9C17.5 13.6944 13.6944 17.5 9 17.5C4.30558 17.5 0.5 13.6944 0.5 9C0.5 4.30558 4.30558 0.5 9 0.5C13.6944 0.5 17.5 4.30558 17.5 9Z" stroke="#1E1E1E"/>
<path d="M18.3001 19.0001C18.1201 19.0001 17.9401 18.9301 17.8101 18.8001L15.9501 16.9401C15.6801 16.6701 15.6801 16.2301 15.9501 15.9501C16.2201 15.6801 16.6601 15.6801 16.9401 15.9501L18.8001 17.8101C19.0701 18.0801 19.0701 18.5201 18.8001 18.8001C18.6601 18.9301 18.4801 19.0001 18.3001 19.0001Z" fill="#1E1E1E"/>
</svg>
