<svg width="55" height="64" viewBox="0 0 55 64" fill="none" xmlns="http://www.w3.org/2000/svg">
<path d="M27.6464 18.5649C32.5175 18.5649 36.4663 14.6161 36.4663 9.74495C36.4663 4.87382 32.5175 0.924988 27.6464 0.924988C22.7752 0.924988 18.8264 4.87382 18.8264 9.74495C18.8264 14.6161 22.7752 18.5649 27.6464 18.5649Z" fill="#05E3D5"/>
<path d="M37.04 52.8002L42.6315 46.3422C43.0042 45.9118 43.1244 45.3177 42.9484 44.7762C42.7725 44.2348 42.3261 43.8248 41.7716 43.6957L33.4521 41.7578L29.038 34.4444C28.7439 33.9569 28.2159 33.659 27.6466 33.659C27.0773 33.659 26.5494 33.957 26.2552 34.4444L21.8412 41.7578L13.5217 43.6957C12.9672 43.8248 12.5208 44.2348 12.3447 44.7762C12.1687 45.3177 12.289 45.9118 12.6617 46.3422L18.2531 52.8002L17.5254 61.3114C17.4769 61.8786 17.7287 62.43 18.1894 62.7645C18.6501 63.0993 19.2523 63.1682 19.7766 62.9471L27.6466 59.6248L35.5164 62.9471C35.7196 63.0329 35.9346 63.075 36.1482 63.075C36.4863 63.075 36.8215 62.9697 37.1036 62.7646C37.5643 62.43 37.8162 61.8788 37.7676 61.3115L37.04 52.8002Z" fill="#05E3D5"/>
<path d="M54.4073 51.351L49.8392 47.5935L49.3458 41.6993C49.2983 41.132 48.9574 40.6309 48.447 40.3784C47.937 40.1261 47.3315 40.1589 46.8517 40.4653L45.1289 41.5653C45.7061 42.1438 46.1527 42.8543 46.4115 43.6501C46.9785 45.3952 46.5849 47.3398 45.3845 48.726L40.7993 54.0218L41.2783 59.624L43.6458 62.3682C43.9574 62.7293 44.4081 62.9317 44.8762 62.9317C44.9669 62.9317 45.0583 62.924 45.1495 62.9086C45.7106 62.8129 46.181 62.4305 46.3891 61.9006L48.5511 56.3953L54.0043 54.1044C54.5291 53.8839 54.9005 53.4049 54.9829 52.8414C55.0652 52.2781 54.8468 51.7126 54.4073 51.351Z" fill="#05E3D5"/>
<path d="M8.88124 43.6509C9.14016 42.8546 9.58686 42.1438 10.1643 41.5651L8.44158 40.4651C7.96161 40.1587 7.3565 40.1258 6.84619 40.3782C6.33588 40.6308 5.9949 41.1319 5.94744 41.6991L5.45388 47.5933L0.885977 51.3508C0.446314 51.7124 0.22794 52.2779 0.310361 52.8412C0.392783 53.4046 0.764105 53.8837 1.28898 54.1042L6.74216 56.3951L8.90418 61.9004C9.11236 62.4303 9.58261 62.8127 10.1438 62.9084C10.2349 62.9238 10.3262 62.9315 10.417 62.9315C10.8851 62.9315 11.3359 62.7291 11.6474 62.368L14.0149 59.6238L14.4939 54.0217L9.90878 48.7258C8.70838 47.3396 8.31473 45.3951 8.88124 43.6509Z" fill="#05E3D5"/>
<path d="M19.5177 38.5599L23.1373 32.5626C24.0847 30.9927 25.8125 30.0174 27.6464 30.0174C29.4805 30.0174 31.2084 30.9929 32.1557 32.5631L35.7751 38.5599L42.5974 40.1491C42.8401 40.2055 43.076 40.2805 43.3052 40.37V25.4212C43.3052 21.6779 40.6863 18.5388 37.1912 17.7469C35.2731 20.0311 32.5522 21.6192 29.4671 22.0731V25.397C29.4671 26.4026 28.6519 27.2178 27.6463 27.2178C26.6408 27.2178 25.8255 26.4026 25.8255 25.397V22.073C22.7405 21.6191 20.0196 20.031 18.1014 17.7468C14.6063 18.5388 11.9875 21.6778 11.9875 25.4211V40.3699C12.2168 40.2804 12.4529 40.2054 12.6957 40.1488L19.5177 38.5599Z" fill="#05E3D5"/>
</svg>
