<svg width="63" height="57" viewBox="0 0 63 57" fill="none" xmlns="http://www.w3.org/2000/svg">
<path d="M51.9575 0H11.1742C5.01272 0 0 5.00181 0 11.1506V52.8519C0 54.3292 0.895935 55.678 2.28358 56.2881C2.77384 56.5039 3.29343 56.6087 3.80869 56.6087C4.73202 56.6087 5.64189 56.2717 6.34701 55.6304C11.4592 51.0046 18.0759 48.4568 24.979 48.4568H24.9809L51.9647 48.4587C58.0493 48.4587 63 43.4968 63 37.398V11.0189C63 4.94317 58.0464 0 51.9575 0ZM18.3172 32.1832C18.3172 33.2023 17.4909 34.0287 16.4715 34.0287C15.4525 34.0287 14.6258 33.2023 14.6258 32.1832V26.829H11.3016V32.1832C11.3016 33.2023 10.4748 34.0287 9.45586 34.0287C8.4364 34.0287 7.61016 33.2023 7.61016 32.1832V17.783C7.61016 16.7634 8.4364 15.9371 9.45586 15.9371C10.4748 15.9371 11.3016 16.7639 11.3016 17.783V23.1372H14.6258V17.783C14.6258 16.7634 15.4525 15.9371 16.4715 15.9371C17.4909 15.9371 18.3172 16.7639 18.3172 17.783V32.1832ZM29.4169 23.1372C30.4363 23.1372 31.2626 23.9635 31.2626 24.9831C31.2626 26.0027 30.4363 26.829 29.4169 26.829H24.247V29.9575C24.247 30.1671 24.4171 30.3373 24.6262 30.3373H29.4169C30.4363 30.3373 31.2626 31.1636 31.2626 32.1827C31.2626 33.2023 30.4363 34.0287 29.4169 34.0287H24.6262C22.3816 34.0287 20.5556 32.2024 20.5556 29.9575V20.0082C20.5556 17.7633 22.3816 15.9371 24.6262 15.9371H29.4169C30.4363 15.9371 31.2626 16.7634 31.2626 17.7825C31.2626 18.8021 30.4363 19.6285 29.4169 19.6285H24.6262C24.4171 19.6285 24.247 19.7986 24.247 20.0077V23.1367H29.4169V23.1372ZM41.1323 34.0287H37.7937C35.4264 34.0287 33.501 32.1029 33.501 29.7359V17.783C33.501 16.7634 34.3272 15.9371 35.3467 15.9371C36.3661 15.9371 37.1924 16.7634 37.1924 17.783V29.7359C37.1924 30.0671 37.462 30.3373 37.7937 30.3373H41.1323C42.1512 30.3373 42.978 31.1636 42.978 32.1827C42.978 33.2023 42.1512 34.0287 41.1323 34.0287ZM49.9541 26.6454H48.2921V32.1832C48.2921 33.2023 47.4658 34.0287 46.4464 34.0287C45.4269 34.0287 44.6006 33.2023 44.6006 32.1832V18.592C44.6006 17.1278 45.7917 15.9371 47.2553 15.9371H49.9541C52.9063 15.9371 55.3081 18.3392 55.3081 21.2912C55.3081 24.2438 52.9063 26.6454 49.9541 26.6454Z" fill="#05E3D5"/>
<path d="M49.7607 20.087H48.3914V22.8261H49.7607C50.5159 22.8261 51.1305 22.2118 51.1305 21.4565C51.1305 20.7013 50.5159 20.087 49.7607 20.087Z" fill="#05E3D5"/>
</svg>
