<svg width="35" height="35" viewBox="0 0 35 35" fill="none" xmlns="http://www.w3.org/2000/svg">
<path d="M32.6892 10.5175L21.4199 1.34753C19.2177 -0.437467 15.7767 -0.454967 13.5917 1.33003L2.32247 10.5175C0.705204 11.83 -0.275477 14.455 0.0686215 16.52L2.23644 29.715C2.73539 32.6725 5.43656 35 8.3786 35H26.6158C29.5235 35 32.2762 32.62 32.7752 29.6975L34.943 16.5025C35.2527 14.455 34.272 11.83 32.6892 10.5175ZM18.7876 28C18.7876 28.7175 18.2026 29.3125 17.4972 29.3125C16.7918 29.3125 16.2068 28.7175 16.2068 28V22.75C16.2068 22.0325 16.7918 21.4375 17.4972 21.4375C18.2026 21.4375 18.7876 22.0325 18.7876 22.75V28Z" fill="#1E1E1E" fill-opacity="0.5"/>
</svg>
