<svg width="13" height="15" viewBox="0 0 13 15" fill="none" xmlns="http://www.w3.org/2000/svg">
<path d="M12.8169 4.90244C12.0479 1.52195 9.09634 0 6.50366 0C6.50366 0 6.50366 0 6.49634 0C3.91098 0 0.952099 1.51463 0.183083 4.89512C-0.67382 8.67073 1.64055 11.8683 3.7352 13.8805C4.51154 14.6268 5.5076 15 6.50366 15C7.49972 15 8.49578 14.6268 9.2648 13.8805C11.3594 11.8683 13.6738 8.67805 12.8169 4.90244ZM6.50366 8.56829C5.22929 8.56829 4.19661 7.53659 4.19661 6.26341C4.19661 4.99024 5.22929 3.95854 6.50366 3.95854C7.77803 3.95854 8.81071 4.99024 8.81071 6.26341C8.81071 7.53659 7.77803 8.56829 6.50366 8.56829Z" fill="#989898"/>
</svg>
