<svg width="35" height="35" viewBox="0 0 35 35" fill="none" xmlns="http://www.w3.org/2000/svg">
<path d="M26.25 0H8.75C3.92 0 0 3.90445 0 8.71936V19.1896V20.9405C0 25.7554 3.92 29.6598 8.75 29.6598H11.375C11.8475 29.6598 12.4775 29.975 12.775 30.3602L15.4 33.8444C16.555 35.3852 18.445 35.3852 19.6 33.8444L22.225 30.3602C22.5575 29.9225 23.0825 29.6598 23.625 29.6598H26.25C31.08 29.6598 35 25.7554 35 20.9405V8.71936C35 3.90445 31.08 0 26.25 0ZM19.25 20.5728H8.75C8.0325 20.5728 7.4375 19.9775 7.4375 19.2596C7.4375 18.5418 8.0325 17.9465 8.75 17.9465H19.25C19.9675 17.9465 20.5625 18.5418 20.5625 19.2596C20.5625 19.9775 19.9675 20.5728 19.25 20.5728ZM26.25 11.8184H8.75C8.0325 11.8184 7.4375 11.2231 7.4375 10.5053C7.4375 9.78739 8.0325 9.1921 8.75 9.1921H26.25C26.9675 9.1921 27.5625 9.78739 27.5625 10.5053C27.5625 11.2231 26.9675 11.8184 26.25 11.8184Z" fill="#1E1E1E" fill-opacity="0.5"/>
</svg>
