<svg width="36" height="36" viewBox="0 0 36 36" fill="none" xmlns="http://www.w3.org/2000/svg">
<circle cx="18" cy="18" r="18" fill="white"/>
<path d="M18.1488 26.5345C13.8147 26.5345 10.2803 23.0087 10.2803 18.6659V17.0492C10.2803 16.7138 10.5555 16.4473 10.8822 16.4473C11.209 16.4473 11.4842 16.7224 11.4842 17.0492V18.6659C11.4842 22.3379 14.4682 25.3219 18.1402 25.3219C21.8122 25.3219 24.7962 22.3379 24.7962 18.6659V17.0492C24.7962 16.7138 25.0714 16.4473 25.3982 16.4473C25.725 16.4473 26.0001 16.7224 26.0001 17.0492V18.6659C26.0173 23.0087 22.4829 26.5345 18.1488 26.5345Z" fill="#05E3D5"/>
<path d="M18.1485 9.39551C15.2591 9.39551 12.9028 11.7518 12.9028 14.6412V18.6744C12.9028 21.5638 15.2591 23.92 18.1485 23.92C21.0379 23.92 23.3942 21.5638 23.3942 18.6744V14.6412C23.3942 11.7518 21.0379 9.39551 18.1485 9.39551ZM20.0232 16.7825C19.963 17.0147 19.748 17.1694 19.5158 17.1694C19.4728 17.1694 19.4212 17.1608 19.3782 17.1522C18.5011 16.9115 17.5724 16.9115 16.6952 17.1522C16.4114 17.2296 16.1276 17.0663 16.0502 16.7825C15.9729 16.5073 16.1362 16.2149 16.42 16.1375C17.4778 15.8451 18.5957 15.8451 19.6534 16.1375C19.9372 16.2149 20.1006 16.4987 20.0232 16.7825ZM20.7542 14.4004C20.6768 14.6154 20.479 14.7444 20.264 14.7444C20.2038 14.7444 20.1436 14.7358 20.0834 14.71C18.7677 14.2284 17.323 14.2284 16.0072 14.71C15.7321 14.8132 15.4311 14.6756 15.3279 14.4004C15.2333 14.1338 15.3709 13.8328 15.6461 13.7297C17.194 13.1707 18.8967 13.1707 20.436 13.7297C20.7112 13.8328 20.8488 14.1338 20.7542 14.4004Z" fill="#05E3D5"/>
</svg>
