<svg width="28" height="35" viewBox="0 0 28 35" fill="none" xmlns="http://www.w3.org/2000/svg">
<path d="M26.7468 13.142C26.0486 13.142 25.4936 13.6681 25.4936 14.3299V17.0112C25.4936 23.0188 20.3376 27.9063 14 27.9063C7.66241 27.9063 2.50639 23.0188 2.50639 17.0112V14.3129C2.50639 13.6511 1.95141 13.125 1.2532 13.125C0.554988 13.125 0 13.6511 0 14.3129V16.9943C0 23.9013 5.60358 29.5864 12.7468 30.1973V33.8121C12.7468 34.4739 13.3018 35 14 35C14.6982 35 15.2532 34.4739 15.2532 33.8121V30.1973C22.3785 29.6034 28 23.9013 28 16.9943V14.3129C27.9821 13.6681 27.4271 13.142 26.7468 13.142Z" fill="#05E3D5"/>
<path d="M14 0C9.70638 0 6.22221 3.5163 6.22221 7.84951V16.9422C6.22221 21.2754 9.70638 24.7917 14 24.7917C18.2936 24.7917 21.7778 21.2754 21.7778 16.9422V7.84951C21.7778 3.5163 18.2936 0 14 0ZM16.3052 12.3426C16.182 12.8043 15.7773 13.1062 15.3197 13.1062C15.2318 13.1062 15.1438 13.0884 15.0558 13.0707C14.3695 12.8753 13.6481 12.8753 12.9618 13.0707C12.3987 13.2305 11.8532 12.8931 11.7124 12.3426C11.554 11.792 11.8884 11.2237 12.4339 11.0817C13.4721 10.7975 14.5631 10.7975 15.6013 11.0817C16.1292 11.2237 16.4459 11.792 16.3052 12.3426ZM17.2378 8.89729C17.0794 9.32351 16.6923 9.57214 16.27 9.57214C16.1468 9.57214 16.0412 9.55438 15.918 9.51886C14.6863 9.05713 13.3137 9.05713 12.0819 9.51886C11.554 9.71421 10.9557 9.43007 10.7622 8.89729C10.5686 8.36452 10.8502 7.76071 11.3781 7.58312C13.0674 6.96156 14.9326 6.96156 16.6219 7.58312C17.1498 7.77847 17.4314 8.36452 17.2378 8.89729Z" fill="#05E3D5"/>
</svg>
