<svg width="16" height="22" viewBox="0 0 16 22" fill="none" xmlns="http://www.w3.org/2000/svg">
<path d="M7.81484 9.87C7.71484 9.86 7.59484 9.86 7.48484 9.87C5.10484 9.79 3.21484 7.84 3.21484 5.44C3.21484 2.99 5.19484 1 7.65484 1C10.1048 1 12.0948 2.99 12.0948 5.44C12.0848 7.84 10.1948 9.79 7.81484 9.87Z" stroke="#1E1E1E" stroke-width="1.5" stroke-linecap="round" stroke-linejoin="round"/>
<path d="M2.815 13.56C0.395 15.18 0.395 17.82 2.815 19.43C5.565 21.27 10.075 21.27 12.825 19.43C15.245 17.81 15.245 15.17 12.825 13.56C10.085 11.73 5.575 11.73 2.815 13.56Z" stroke="#1E1E1E" stroke-width="1.5" stroke-linecap="round" stroke-linejoin="round"/>
</svg>
