<svg width="20" height="19" viewBox="0 0 20 19" fill="none" xmlns="http://www.w3.org/2000/svg">
<path d="M9 18C13.9706 18 18 13.9706 18 9C18 4.02944 13.9706 0 9 0C4.02944 0 0 4.02944 0 9C0 13.9706 4.02944 18 9 18Z" fill="#05E3D5"/>
<path d="M18.3001 19.0001C18.1201 19.0001 17.9401 18.9301 17.8101 18.8001L15.9501 16.9401C15.6801 16.6701 15.6801 16.2301 15.9501 15.9501C16.2201 15.6801 16.6601 15.6801 16.9401 15.9501L18.8001 17.8101C19.0701 18.0801 19.0701 18.5201 18.8001 18.8001C18.6601 18.9301 18.4801 19.0001 18.3001 19.0001Z" fill="#05E3D5"/>
</svg>
