<svg width="38" height="36" viewBox="0 0 38 36" fill="none" xmlns="http://www.w3.org/2000/svg">
<path d="M16.0905 34.1056C24.977 34.1056 32.1809 26.4708 32.1809 17.0528C32.1809 7.63479 24.977 0 16.0905 0C7.20394 0 0 7.63479 0 17.0528C0 26.4708 7.20394 34.1056 16.0905 34.1056Z" fill="#1E1E1E" fill-opacity="0.5"/>
<path d="M36.7441 36.0001C36.4223 36.0001 36.1005 35.8675 35.8681 35.6211L32.5427 32.0969C32.06 31.5853 32.06 30.7516 32.5427 30.2211C33.0254 29.7095 33.8121 29.7095 34.3126 30.2211L37.638 33.7453C38.1207 34.2569 38.1207 35.0906 37.638 35.6211C37.3877 35.8675 37.0659 36.0001 36.7441 36.0001Z" fill="#1E1E1E" fill-opacity="0.5"/>
</svg>
