<svg width="16" height="18" viewBox="0 0 16 18" fill="none" xmlns="http://www.w3.org/2000/svg">
<path d="M8.14881 17.5345C3.81466 17.5345 0.280273 14.0087 0.280273 9.66592V8.04921C0.280273 7.71383 0.555457 7.44725 0.882238 7.44725C1.20902 7.44725 1.4842 7.72243 1.4842 8.04921V9.66592C1.4842 13.3379 4.46822 16.3219 8.14021 16.3219C11.8122 16.3219 14.7962 13.3379 14.7962 9.66592V8.04921C14.7962 7.71383 15.0714 7.44725 15.3982 7.44725C15.725 7.44725 16.0001 7.72243 16.0001 8.04921V9.66592C16.0173 14.0087 12.4829 17.5345 8.14881 17.5345Z" fill="#05E3D5"/>
<path d="M8.14852 0.395508C5.25909 0.395508 2.90283 2.75177 2.90283 5.6412V9.67436C2.90283 12.5638 5.25909 14.92 8.14852 14.92C11.0379 14.92 13.3942 12.5638 13.3942 9.67436V5.6412C13.3942 2.75177 11.0379 0.395508 8.14852 0.395508ZM10.0232 7.78247C9.96301 8.01466 9.74803 8.16945 9.51584 8.16945C9.47284 8.16945 9.42125 8.16085 9.37825 8.15225C8.5011 7.91146 7.57235 7.91146 6.69521 8.15225C6.41142 8.22964 6.12764 8.06625 6.05025 7.78247C5.97285 7.50729 6.13624 7.2149 6.42002 7.13751C7.47776 6.84513 8.59569 6.84513 9.65343 7.13751C9.93721 7.2149 10.1006 7.49869 10.0232 7.78247ZM10.7542 5.40041C10.6768 5.6154 10.479 5.74439 10.264 5.74439C10.2038 5.74439 10.1436 5.73579 10.0834 5.70999C8.76768 5.22842 7.32297 5.22842 6.00725 5.70999C5.73206 5.81319 5.43108 5.67559 5.32789 5.40041C5.23329 5.13383 5.37089 4.83284 5.64607 4.72965C7.19398 4.17068 8.89668 4.17068 10.436 4.72965C10.7112 4.83284 10.8488 5.13383 10.7542 5.40041Z" fill="#05E3D5"/>
</svg>
